<svg xmlns="http://www.w3.org/2000/svg" width="166.362" height="76.354" viewBox="0 0 166.362 76.354">
  <g id="splash_logo" transform="translate(-108 -136.575)">
    <g id="Group_17910" data-name="Group 17910" transform="translate(108 136.575)">
      <text id="Visit" transform="translate(0 34.826)" fill="#9dbf1c" font-size="29" font-family="Poppins, sans-serif" font-weight="500"><tspan x="0" y="0">Visit</tspan></text>
      <text id="Ballyhoura" transform="translate(0 69.354)" fill="#9dbf1c" font-size="29" font-family="Poppins, sans-serif" font-weight="500"><tspan x="0" y="0">Ballyhoura</tspan></text>
      <g id="Group_17748" data-name="Group 17748" transform="translate(85.031 0)">
        <g id="Group_17745" data-name="Group 17745" transform="translate(0)">
          <g id="Group_17744" data-name="Group 17744">
            <path id="Path_75" data-name="Path 75" d="M164.53,292.485c-.5,2.738-1.141,5.454-1.506,8.215-.73,5.339.137,10.633.525,15.95.068.958.205,1.894.319,2.829s-.023,1.346-.73,1.734-1.232.068-1.757-.365a3.369,3.369,0,0,0-1.323-.844c-1.255-.274-1.323-1.1-1.392-2.168s-.479-2.487-.707-3.765c-.091-.456-.319-1.187-.091-1.392a5.631,5.631,0,0,1,1.574-.479h.479a20.774,20.774,0,0,0-.251-2.122,63.436,63.436,0,0,1-1.46-11.911,30.941,30.941,0,0,1,2.442-12.5c.776-1.848,1.6-3.674,2.3-5.545a2.228,2.228,0,0,0-.228-1.392,5.778,5.778,0,0,1,4.221-3.172,3.448,3.448,0,0,1,1.232.228,3.281,3.281,0,0,1-.388,1.209,31.833,31.833,0,0,0-5.385,8.762,32.709,32.709,0,0,0-2.51,11.592,36.622,36.622,0,0,0,.388,4.427h.411c.228-1.483.411-2.989.707-4.472a56.628,56.628,0,0,1,8.625-20.81c.183-.251.342-.616.593-.685a2.336,2.336,0,0,1,1.323-.068c.342.182.388.821.3,1.164a2.9,2.9,0,0,1-.89,1.278,22.249,22.249,0,0,0-6,10.907c-.3,1.209-.16,1.392,1.072,1.438a14.786,14.786,0,0,1,9.652,3.765,4.518,4.518,0,0,1,.958,1.118,29.9,29.9,0,0,0,7.507,8.808,29.166,29.166,0,0,0,10.93,5.636,28.692,28.692,0,0,0,19.578-2.4,85.628,85.628,0,0,0,11.888-7.1c1.825-1.255,3.811-2.327,5.7-3.491.183-.114.342-.274.685-.525a20.778,20.778,0,0,0-1.826-1.072,23.7,23.7,0,0,0-14.125-1.734c-1.711.3-3.286,1.483-4.86,2.327-.685.365-.776.958,0,1.392,2.556,1.483,5.043,3.126,8.169,3.149h2.327a3.841,3.841,0,0,1-2.829,1.415,9.994,9.994,0,0,1-6.07-1.027c-2.327-1.232-4.678-2.487-6.96-3.833-4.29-2.51-8.853-4.107-13.873-3.468a42.317,42.317,0,0,0-8.1,2.1c-1.118.365-2.008,1.438-2.966,2.259s-1.118.913-1.962-.616a43.416,43.416,0,0,1,5.568-3.354,25.645,25.645,0,0,1,18.848-1.072,16.825,16.825,0,0,1,2.944,1.46,1.811,1.811,0,0,0,2.236,0,17.321,17.321,0,0,1,8.968-2.875,20.534,20.534,0,0,1,4.221.639,10.666,10.666,0,0,0,2.373.479,4.625,4.625,0,0,0-.411-.525c-1.917-1.506-3.879-2.921-5.727-4.5-3.1-2.624-6.868-3.765-10.679-4.815-4.723-1.3-9.515-2.1-14.4-1.05-5.773,1.232-10.268,4.153-12.55,9.88a3.169,3.169,0,0,1-4.678,1.438c-.73-.411-.821-.867-.388-1.574a20.661,20.661,0,0,1,5.91-6.5c5.522-3.811,11.5-6.321,18.346-6.138a29.749,29.749,0,0,1,15.311,4.906c3.331,2.122,6.5,4.472,9.789,6.64A44.676,44.676,0,0,0,238.758,296l.342.205c-.091.091-.137.182-.205.205-3.948,1.118-7.279,3.331-10.656,5.545s-6.48,4.221-9.743,6.3a30.468,30.468,0,0,1-19.373,4.86c-5.841-.456-11.112-2.168-15.516-6.024-3.879-3.4-7.462-7.1-9.743-11.843a4.09,4.09,0,0,0-5.454-2.145c-1.415.593-2.578,1-3.468-.844Z" transform="translate(-157.769 -275.54)" fill="#024638"/>
            <path id="Path_96" data-name="Path 96" d="M313.106,326.939a3.959,3.959,0,0,0-4.906-.662,2.376,2.376,0,0,1,3.035-1.483c1.3.411,1.757.411,2.578-.434s1.438-.525,2.738.068A4.405,4.405,0,0,0,313.106,326.939Z" transform="translate(-273.874 -312.823)" fill="#024638"/>
            <path id="Path_99" data-name="Path 99" d="M392.909,317.9c-.867,1.734-2.213.616-3.24.935l-.068-.365Z" transform="translate(-336.7 -308.234)" fill="#024638"/>
          </g>
        </g>
      </g>
    </g>
  </g>
</svg>
