<svg xmlns="http://www.w3.org/2000/svg" width="27.73" height="27.519" viewBox="0 0 27.73 27.519">
  <g id="activity" transform="translate(-7940.334 2997)">
    <path id="Path_29435" data-name="Path 29435" d="M320.791,312.083h-2.743a1.168,1.168,0,0,0-1.051.7l-1.08,2.393-3.181-7.121a1.207,1.207,0,0,0-2.1,0l-1.809,4.027h-2.948l-.117,2.276h3.794a1.19,1.19,0,0,0,1.051-.671l1.08-2.393,3.181,7.121a1.158,1.158,0,0,0,1.051.671,1.19,1.19,0,0,0,1.051-.671l1.809-4.056h2.014a1.121,1.121,0,0,0,1.138-1.138,1.159,1.159,0,0,0-1.138-1.138Z" transform="translate(7646.136 -3289.239)" fill="#fff"/>
    <path id="Path_29436" data-name="Path 29436" d="M100.827,194.087l.671-1.78a.587.587,0,0,0-.555-.788H88.308a3.926,3.926,0,0,0-3.91,3.531l-.525,4.786a.9.9,0,0,0,.73.992,14.663,14.663,0,0,0,1.926.263l.438,7.646a1.191,1.191,0,0,0,1.2,1.138h3.706a1.191,1.191,0,0,0,1.2-1.138l.642-13.1a1.2,1.2,0,0,1,1.2-1.167h5.34a.582.582,0,0,0,.583-.379Z" transform="translate(7856.469 -3179.356)" fill="#fff"/>
    <path id="Path_29437" data-name="Path 29437" d="M132.932,19.707a4.027,4.027,0,1,1-4.027-4.027,4.027,4.027,0,0,1,4.027,4.027" transform="translate(7817.593 -3012.68)" fill="#fff"/>
  </g>
</svg>
