<svg xmlns="http://www.w3.org/2000/svg" width="22.846" height="22.846" viewBox="0 0 22.846 22.846">
  <g id="Group_18527" data-name="Group 18527" transform="translate(-22 -159)">
    <path id="Path_27314" data-name="Path 27314" d="M21.18,0H1.666A1.668,1.668,0,0,0,0,1.666v2.38A1.668,1.668,0,0,0,1.666,5.711H21.18a1.668,1.668,0,0,0,1.666-1.666V1.666A1.668,1.668,0,0,0,21.18,0Z" transform="translate(22 159)" fill="#fff"/>
    <path id="Path_27315" data-name="Path 27315" d="M1.666,23.23H8.805a1.668,1.668,0,0,0,1.666-1.666V9.666A1.668,1.668,0,0,0,8.805,8H1.666A1.668,1.668,0,0,0,0,9.666v11.9A1.668,1.668,0,0,0,1.666,23.23Z" transform="translate(22 158.615)" fill="#fff"/>
    <path id="Path_27316" data-name="Path 27316" d="M21.805,8H14.666A1.668,1.668,0,0,0,13,9.666V13a1.668,1.668,0,0,0,1.666,1.666h7.139A1.668,1.668,0,0,0,23.471,13V9.666A1.668,1.668,0,0,0,21.805,8Z" transform="translate(21.375 158.615)" fill="#fff"/>
    <path id="Path_27317" data-name="Path 27317" d="M21.805,17H14.666A1.668,1.668,0,0,0,13,18.666V22a1.668,1.668,0,0,0,1.666,1.666h7.139A1.668,1.668,0,0,0,23.471,22V18.666A1.668,1.668,0,0,0,21.805,17Z" transform="translate(21.375 158.182)" fill="#fff"/>
  </g>
</svg>
