<svg id="Group_18030" data-name="Group 18030" xmlns="http://www.w3.org/2000/svg" width="15.333" height="15.333" viewBox="0 0 15.333 15.333">
  <path id="Path_23304" data-name="Path 23304" d="M14.924,2.49,12.833.4a1.425,1.425,0,0,0-1.972,0L1.495,9.858a.351.351,0,0,0-.088.15L.013,14.89a.349.349,0,0,0,.431.431l4.879-1.4a.35.35,0,0,0,.15-.088l9.452-9.376a1.4,1.4,0,0,0,0-1.973Zm-5.582.443,1.283,1.283-6.7,6.7-.481-.962a.349.349,0,0,0-.312-.193H2.578ZM.856,14.479l.454-1.589,1.135,1.135ZM4.878,13.33l-1.667.476L1.528,12.124,2,10.456h.916l.6,1.2a.349.349,0,0,0,.156.156l1.2.6v.916Zm.7-.573V12.2a.349.349,0,0,0-.193-.312l-.962-.481,6.7-6.7L12.4,5.992Zm8.857-8.778L12.9,5.5,9.833,2.439,11.355.9a.713.713,0,0,1,.986,0l2.091,2.091a.7.7,0,0,1,0,.984Z" transform="translate(0 -0.002)" fill="#024638"/>
</svg>
