<svg xmlns="http://www.w3.org/2000/svg" width="20.303" height="20.078" viewBox="0 0 20.303 20.078">
  <path id="Path_968" data-name="Path 968" d="M5.4.571A2.807,2.807,0,0,0,2.708,2.644H1.257a.725.725,0,1,0,0,1.45H2.7a2.786,2.786,0,0,0,5.381.035l12.023-.035a.725.725,0,0,0,0-1.45l-12,.035A2.81,2.81,0,0,0,5.4.571Zm0,1.45A1.352,1.352,0,1,1,4.049,3.372,1.341,1.341,0,0,1,5.4,2.021Zm7.747,5.558a2.843,2.843,0,0,0-2.732,2.11H1.257a.725.725,0,1,0,0,1.45h9.159a2.821,2.821,0,0,0,5.461,0h4.231a.725.725,0,0,0,0-1.45H15.88a2.843,2.843,0,0,0-2.732-2.11Zm0,1.45a1.386,1.386,0,1,1-1.388,1.384A1.374,1.374,0,0,1,13.148,9.029ZM7.512,14.972a2.846,2.846,0,0,0-2.732,2.11H1.257a.725.725,0,1,0,0,1.45H4.778a2.823,2.823,0,0,0,5.466,0h9.865a.725.725,0,0,0,0-1.45H10.243a2.845,2.845,0,0,0-2.731-2.11Zm0,1.45A1.388,1.388,0,1,1,6.124,17.81,1.377,1.377,0,0,1,7.512,16.422Z" transform="translate(-0.529 -0.57)" fill="#fff"/>
</svg>
