<svg xmlns="http://www.w3.org/2000/svg" width="14.214" height="22.88" viewBox="0 0 14.214 22.88">
  <path id="Path_861" data-name="Path 861" d="M27.5,17.91v2.433a.613.613,0,1,0,1.226,0V17.91a.613.613,0,0,0-1.226,0Zm7.107-3.345a.613.613,0,0,0,.613-.613V12.881a.613.613,0,0,0-.613-.613H33.523V8.739a5.409,5.409,0,1,0-10.818,0v3.529H21.62a.613.613,0,0,0-.613.613V24.033a2.179,2.179,0,0,0,2.177,2.176h9.86a2.179,2.179,0,0,0,2.177-2.176v-8a.613.613,0,0,0-1.226,0v8a.952.952,0,0,1-.951.951h-9.86a.952.952,0,0,1-.951-.951V13.494h1.027c.019,0,.038.006.058.006s.039,0,.058-.006h9.476c.019,0,.038.006.058.006s.039,0,.058-.006h1.027v.458A.614.614,0,0,0,34.608,14.565Zm-2.311-2.3H23.93V8.739a4.184,4.184,0,1,1,8.367,0Z" transform="translate(-21.007 -3.329)" fill="#024638"/>
</svg>
