<svg id="trash_2_" data-name="trash (2)" xmlns="http://www.w3.org/2000/svg" width="12.458" height="15.333" viewBox="0 0 12.458 15.333">
  <path id="Path_23299" data-name="Path 23299" d="M59.26,1.917H56.625V1.437A1.439,1.439,0,0,0,55.187,0H53.271a1.439,1.439,0,0,0-1.437,1.437v.479H49.2a1.2,1.2,0,0,0-1.2,1.2V4.792a.479.479,0,0,0,.479.479h.262l.414,8.693a1.436,1.436,0,0,0,1.436,1.369h7.276A1.436,1.436,0,0,0,59.3,13.964l.414-8.693h.262a.479.479,0,0,0,.479-.479V3.115A1.2,1.2,0,0,0,59.26,1.917Zm-6.469-.479a.48.48,0,0,1,.479-.479h1.917a.48.48,0,0,1,.479.479v.479H52.792ZM48.958,3.115a.24.24,0,0,1,.24-.24H59.26a.24.24,0,0,1,.24.24v1.2H48.958Zm9.388,10.8a.479.479,0,0,1-.479.456H50.591a.479.479,0,0,1-.479-.456L49.7,5.271h9.057Z" transform="translate(-48)" fill="#024638"/>
  <path id="Path_23300" data-name="Path 23300" d="M240.479,215.187a.479.479,0,0,0,.479-.479v-6.229a.479.479,0,0,0-.958,0v6.229A.479.479,0,0,0,240.479,215.187Z" transform="translate(-234.25 -201.771)" fill="#024638"/>
  <path id="Path_23301" data-name="Path 23301" d="M320.479,215.187a.479.479,0,0,0,.479-.479v-6.229a.479.479,0,0,0-.958,0v6.229A.479.479,0,0,0,320.479,215.187Z" transform="translate(-311.854 -201.771)" fill="#024638"/>
  <path id="Path_23302" data-name="Path 23302" d="M160.479,215.187a.479.479,0,0,0,.479-.479v-6.229a.479.479,0,0,0-.958,0v6.229A.479.479,0,0,0,160.479,215.187Z" transform="translate(-156.646 -201.771)" fill="#024638"/>
</svg>
